<svg xmlns="http://www.w3.org/2000/svg" xmlns:xlink="http://www.w3.org/1999/xlink" width="512" height="512" viewBox="0 0 512 512">
  <defs>
    <linearGradient id="bg-grad" x1="26.52642186070548%" y1="94.14737964294636%" x2="73.47357813929452%" y2="5.852620357053645%">
        <stop offset="0%" stop-color="#594f4f"/>
        <stop offset="50%" stop-color="#547980"/>
        <stop offset="100%" stop-color="#45ada8"/>
      </linearGradient>
    <clipPath id="canvas-clip">
      <rect width="512" height="512" rx="128" ry="128"/>
    </clipPath>
  </defs>
  <rect width="512" height="512" rx="128" ry="128" fill="url(#bg-grad)"  clip-path="url(#canvas-clip)"/>
  <g clip-path="url(#canvas-clip)">
    <g transform="rotate(0, 256, 256)">
      
      <g transform="translate(123 123) scale(11.083333333333334 11.083333333333334) translate(0 0)"><path fill="none" stroke="#FFFFFF" stroke-linecap="round" stroke-linejoin="round" stroke-width="1.5" d="M19.5 14.25v-2.625a3.375 3.375 0 0 0-3.375-3.375h-1.5A1.125 1.125 0 0 1 13.5 7.125v-1.5a3.375 3.375 0 0 0-3.375-3.375H8.25m3.75 9v7.5m2.25-6.466a9 9 0 0 0-3.461-.203c-.536.072-.974.478-1.021 1.017a5 5 0 0 0-.018.402c0 .464.336.844.775.994l2.95 1.012c.44.15.775.53.775.994q0 .204-.018.402c-.047.539-.485.945-1.021 1.017a9.1 9.1 0 0 1-3.461-.203M10.5 2.25H5.625c-.621 0-1.125.504-1.125 1.125v17.25c0 .621.504 1.125 1.125 1.125h12.75c.621 0 1.125-.504 1.125-1.125V11.25a9 9 0 0 0-9-9"/></g>
    </g>
  </g>
</svg>